<svg version="1.1" xmlns="http://www.w3.org/2000/svg" xmlns:xlink="http://www.w3.org/1999/xlink" width="249.66666" height="249.66666" viewBox="0,0,249.66666,249.66666"><g transform="translate(-115.16681,-55.1668)"><g data-paper-data="{&quot;isPaintingLayer&quot;:true}" fill-rule="nonzero" stroke-linecap="butt" stroke-linejoin="miter" stroke-miterlimit="10" stroke-dasharray="" stroke-dashoffset="0" style="mix-blend-mode: normal"><path d="M115.16682,180.00014c0,-68.94355 55.88977,-124.83333 124.83333,-124.83333c68.94356,0 124.83333,55.88977 124.83333,124.83333c0,68.94356 -55.88977,124.83333 -124.83333,124.83333c-68.94355,0 -124.83333,-55.88977 -124.83333,-124.83333z" fill="none" stroke="none" stroke-width="0"/><path d="M172.09093,180.00002c0,-37.50515 30.40394,-67.9091 67.9091,-67.9091c37.50515,0 67.9091,30.40394 67.9091,67.9091c0,37.50516 -30.40394,67.9091 -67.9091,67.9091c-37.50515,0 -67.9091,-30.40394 -67.9091,-67.9091zM240.41396,195.45641c6.2132,0 11.25,-5.0368 11.25,-11.25c0,-6.2132 -5.0368,-11.25 -11.25,-11.25c-6.2132,0 -11.25,5.0368 -11.25,11.25c0,6.2132 5.0368,11.25 11.25,11.25zM207.7473,195.12307c6.2132,0 11.25,-5.0368 11.25,-11.25c0,-6.2132 -5.0368,-11.25 -11.25,-11.25c-6.2132,0 -11.25,5.0368 -11.25,11.25c0,6.2132 5.0368,11.25 11.25,11.25zM272.41396,195.12307c6.2132,0 11.25,-5.0368 11.25,-11.25c0,-6.2132 -5.0368,-11.25 -11.25,-11.25c-6.2132,0 -11.25,5.0368 -11.25,11.25c0,6.2132 5.0368,11.25 11.25,11.25z" fill="#f9f9f8" stroke="none" stroke-width="0"/><path d="M206.71117,235.07369c0,0 -29.83227,8.08278 -30.54609,7.51446c-0.65595,-0.52224 7.51446,-30.54609 7.51446,-30.54609z" fill="#f9f9f8" stroke="#f8f8f8" stroke-width="5"/><path d="M144.75,180c0,-52.60512 42.64488,-95.25 95.25,-95.25c52.60512,0 95.25,42.64488 95.25,95.25c0,52.60512 -42.64488,95.25 -95.25,95.25c-52.60512,0 -95.25,-42.64488 -95.25,-95.25z" fill="none" stroke="none" stroke-width="0"/><ellipse cx="267.37266" cy="368.23842" transform="scale(0.5,0.5)" rx="0" ry="0" fill="none" stroke="none" stroke-width="0"/></g></g></svg>