<svg version="1.1" xmlns="http://www.w3.org/2000/svg" xmlns:xlink="http://www.w3.org/1999/xlink" width="249.66666" height="249.66666" viewBox="0,0,249.66666,249.66666"><g transform="translate(-115.16672,-55.16673)"><g data-paper-data="{&quot;isPaintingLayer&quot;:true}" fill-rule="nonzero" stroke-linejoin="miter" stroke-miterlimit="10" stroke-dasharray="" stroke-dashoffset="0" style="mix-blend-mode: normal"><path d="M115.16673,180.00007c0,-68.94355 55.88977,-124.83333 124.83333,-124.83333c68.94356,0 124.83333,55.88977 124.83333,124.83333c0,68.94356 -55.88977,124.83333 -124.83333,124.83333c-68.94355,0 -124.83333,-55.88977 -124.83333,-124.83333z" fill="none" stroke="none" stroke-width="0" stroke-linecap="butt"/><path d="M240.00007,301.36045c-67.02549,0 -121.36038,-54.33489 -121.36038,-121.36038c0,-67.02549 54.33489,-121.36038 121.36038,-121.36038c67.02549,0 121.36038,54.33489 121.36038,121.36038c0,67.02549 -54.33489,121.36038 -121.36038,121.36038z" data-paper-data="{&quot;index&quot;:null}" fill="#80c27a" stroke="none" stroke-width="0" stroke-linecap="butt"/><path d="M302.30758,197.54228c0,0 1.56811,8.90793 4.57535,15.07082c2.56495,5.25648 6.38381,9.0106 6.07465,9.22918c-0.10916,0.07717 -3.92248,0.02369 -11.70108,-3.52319c-7.73499,-3.52699 -11.69892,-15.32681 -11.69892,-15.32681z" data-paper-data="{&quot;index&quot;:null}" fill="#f9f9f8" stroke="#f8f8f8" stroke-width="5" stroke-linecap="round"/><path d="M217.01723,132.963h45.96734c25.93705,0 47.0361,21.10085 47.0361,47.0361c0,25.93885 -21.10085,47.0379 -47.0361,47.0379h-45.96734c-25.93526,0 -47.0379,-21.10085 -47.0379,-47.0379c0,-25.93526 21.10264,-47.0361 47.0379,-47.0361z" data-paper-data="{&quot;index&quot;:null}" fill="#f9f9f8" stroke="none" stroke-width="1" stroke-linecap="butt"/><path d="M228.95839,189.94737c0,-6.2132 5.0368,-11.25 11.25,-11.25c6.2132,0 11.25,5.0368 11.25,11.25c0,6.2132 -5.0368,11.25 -11.25,11.25c-6.2132,0 -11.25,-5.0368 -11.25,-11.25z" fill="#80c27a" stroke="none" stroke-width="0" stroke-linecap="butt"/><path d="M196.54169,189.94737c0,-6.2132 5.0368,-11.25 11.25,-11.25c6.2132,0 11.25,5.0368 11.25,11.25c0,6.2132 -5.0368,11.25 -11.25,11.25c-6.2132,0 -11.25,-5.0368 -11.25,-11.25z" fill="#80c27a" stroke="none" stroke-width="0" stroke-linecap="butt"/><path d="M260.95832,189.94737c0,-6.2132 5.0368,-11.25 11.25,-11.25c6.2132,0 11.25,5.0368 11.25,11.25c0,6.2132 -5.0368,11.25 -11.25,11.25c-6.2132,0 -11.25,-5.0368 -11.25,-11.25z" fill="#80c27a" stroke="none" stroke-width="0" stroke-linecap="butt"/></g></g></svg>