<svg version="1.1" xmlns="http://www.w3.org/2000/svg" xmlns:xlink="http://www.w3.org/1999/xlink" width="249.66666" height="249.66666" viewBox="0,0,249.66666,249.66666"><g transform="translate(-115.16668,-55.16668)"><g data-paper-data="{&quot;isPaintingLayer&quot;:true}" fill-rule="nonzero" stroke-linejoin="miter" stroke-miterlimit="10" stroke-dasharray="" stroke-dashoffset="0" style="mix-blend-mode: normal"><path d="M118.63963,180.00001c0,-67.02549 54.33489,-121.36038 121.36038,-121.36038c67.02549,0 121.36038,54.33489 121.36038,121.36038c0,67.02549 -54.33489,121.36038 -121.36038,121.36038c-67.02549,0 -121.36038,-54.33489 -121.36038,-121.36038z" fill="#80c27a" stroke="none" stroke-width="0" stroke-linecap="butt"/><path d="M115.16668,180.00001c0,-68.94355 55.88978,-124.83333 124.83333,-124.83333c68.94355,0 124.83333,55.88978 124.83333,124.83333c0,68.94355 -55.88978,124.83333 -124.83333,124.83333c-68.94355,0 -124.83333,-55.88978 -124.83333,-124.83333z" fill="none" stroke="none" stroke-width="0" stroke-linecap="butt"/><g fill="#f9f9f8"><path d="M227.54248,220.55737c0,0 -32.78827,26.5497 -33,26.4c-0.61742,-0.43653 0,-26 0,-26z" stroke="#f8f8f8" stroke-width="5" stroke-linecap="round"/><path d="M306.80845,208.94197c0,8.8251 -7.1574,15.98063 -15.98064,15.98063h-102.68004c-8.8251,0 -15.97877,-7.15739 -15.97877,-15.98063v-69.57379c0,-8.8251 7.15367,-15.97878 15.97877,-15.97878h102.67819c8.82881,0 15.98064,7.15368 15.98064,15.97878v69.57379z" stroke="none" stroke-width="1" stroke-linecap="butt"/></g><path d="M248.71991,140.40433c0.3801,0.12664 -7.68293,29.19512 -7.68293,29.19512c0,0 21.12256,-0.60539 21.73171,0c0.32293,0.32093 -32.26064,39.70487 -32.4878,39.51219c-0.34272,-0.29071 7.68293,-27.65854 7.68293,-27.65854c0,0 -21.41698,0.18554 -21.51219,0c-0.24431,-0.47609 31.6147,-41.26654 32.26829,-41.04878z" fill="#80c27a" stroke="#80c27a" stroke-width="5" stroke-linecap="round"/></g></g></svg>