<svg version="1.1" xmlns="http://www.w3.org/2000/svg" xmlns:xlink="http://www.w3.org/1999/xlink" width="243.34775" height="243.34775" viewBox="0,0,243.34775,243.34775"><g transform="translate(-118.32612,-58.32611)"><g data-paper-data="{&quot;isPaintingLayer&quot;:true}" fill-rule="nonzero" stroke-linecap="butt" stroke-linejoin="miter" stroke-miterlimit="10" stroke-dasharray="" stroke-dashoffset="0" style="mix-blend-mode: normal"><path d="M118.32613,301.67386v-243.34775h243.34775v243.34775z" fill="#80c27a" stroke="none" stroke-width="0"/><path d="M167.18182,180.00001c0,-40.21637 32.60181,-72.81819 72.81819,-72.81819c40.21637,0 72.81819,32.60182 72.81819,72.81819c0,40.21638 -32.60182,72.81819 -72.81819,72.81819c-40.21637,0 -72.81819,-32.60181 -72.81819,-72.81819z" fill="#f9f9f8" stroke="none" stroke-width="0"/><path d="M228.9584,184.09092c0,-6.2132 5.0368,-11.25 11.25,-11.25c6.2132,0 11.25,5.0368 11.25,11.25c0,6.2132 -5.0368,11.25 -11.25,11.25c-6.2132,0 -11.25,-5.0368 -11.25,-11.25z" fill="#80c27a" stroke="none" stroke-width="0"/><path d="M196.5417,184.09092c0,-6.2132 5.0368,-11.25 11.25,-11.25c6.2132,0 11.25,5.0368 11.25,11.25c0,6.2132 -5.0368,11.25 -11.25,11.25c-6.2132,0 -11.25,-5.0368 -11.25,-11.25z" fill="#80c27a" stroke="none" stroke-width="0"/><path d="M260.95831,184.09092c0,-6.2132 5.0368,-11.25 11.25,-11.25c6.2132,0 11.25,5.0368 11.25,11.25c0,6.2132 -5.0368,11.25 -11.25,11.25c-6.2132,0 -11.25,-5.0368 -11.25,-11.25z" fill="#80c27a" stroke="none" stroke-width="0"/><path d="M173.37316,247.8494l9.21589,-34.11446l24.16375,22.51581z" fill="#f9f9f8" stroke="#f8f8f8" stroke-width="5"/></g></g></svg>