<svg version="1.1" xmlns="http://www.w3.org/2000/svg" xmlns:xlink="http://www.w3.org/1999/xlink" width="249.66666" height="249.66666" viewBox="0,0,249.66666,249.66666"><g transform="translate(-115.16679,-55.1668)"><g data-paper-data="{&quot;isPaintingLayer&quot;:true}" fill-rule="nonzero" stroke-linecap="butt" stroke-linejoin="miter" stroke-miterlimit="10" stroke-dasharray="" stroke-dashoffset="0" style="mix-blend-mode: normal"><path d="M240.00013,301.36046c-67.02549,0 -121.36038,-54.33489 -121.36038,-121.36038c0,-67.02549 54.33489,-121.36038 121.36038,-121.36038c67.02549,0 121.36038,54.33489 121.36038,121.36038c0,67.02549 -54.33489,121.36038 -121.36038,121.36038z" data-paper-data="{&quot;index&quot;:null}" fill="#80c27a" stroke="none" stroke-width="0"/><path d="M115.1668,180.00013c0,-68.94355 55.88977,-124.83333 124.83333,-124.83333c68.94356,0 124.83333,55.88977 124.83333,124.83333c0,68.94356 -55.88977,124.83333 -124.83333,124.83333c-68.94355,0 -124.83333,-55.88977 -124.83333,-124.83333z" fill="none" stroke="none" stroke-width="0"/><path d="M167.18182,180.00001c0,-40.21637 32.60181,-72.81819 72.81819,-72.81819c40.21637,0 72.81819,32.60182 72.81819,72.81819c0,40.21638 -32.60182,72.81819 -72.81819,72.81819c-40.21637,0 -72.81819,-32.60181 -72.81819,-72.81819z" fill="#f9f9f8" stroke="none" stroke-width="0"/><path d="M173.37316,247.8494l9.21589,-34.11446l24.16375,22.51581z" fill="#f9f9f8" stroke="#f8f8f8" stroke-width="5"/><path d="M228.95842,184.09094c0,-6.2132 5.0368,-11.25 11.25,-11.25c6.2132,0 11.25,5.0368 11.25,11.25c0,6.2132 -5.0368,11.25 -11.25,11.25c-6.2132,0 -11.25,-5.0368 -11.25,-11.25z" fill="#80c27a" stroke="none" stroke-width="0"/><path d="M196.5417,184.09094c0,-6.2132 5.0368,-11.25 11.25,-11.25c6.2132,0 11.25,5.0368 11.25,11.25c0,6.2132 -5.0368,11.25 -11.25,11.25c-6.2132,0 -11.25,-5.0368 -11.25,-11.25z" fill="#80c27a" stroke="none" stroke-width="0"/><path d="M260.95833,184.09094c0,-6.2132 5.0368,-11.25 11.25,-11.25c6.2132,0 11.25,5.0368 11.25,11.25c0,6.2132 -5.0368,11.25 -11.25,11.25c-6.2132,0 -11.25,-5.0368 -11.25,-11.25z" fill="#80c27a" stroke="none" stroke-width="0"/></g></g></svg>