<svg xmlns="http://www.w3.org/2000/svg" version="1.1" xmlns:xlink="http://www.w3.org/1999/xlink" width="1000" height="1000"><style>
    #light-icon {
      display: inline;
    }
    #dark-icon {
      display: none;
    }

    @media (prefers-color-scheme: dark) {
      #light-icon {
        display: none;
      }
      #dark-icon {
        display: inline;
      }
    }
  </style><g id="light-icon"><svg xmlns="http://www.w3.org/2000/svg" version="1.1" xmlns:xlink="http://www.w3.org/1999/xlink" width="1000" height="1000"><g clip-path="url(#SvgjsClipPath1102)"><rect width="1000" height="1000" fill="#80c27a"></rect><g transform="matrix(3.28747646115487,0,0,3.28747646115487,100,100)"><svg xmlns="http://www.w3.org/2000/svg" version="1.1" xmlns:xlink="http://www.w3.org/1999/xlink" width="243.34775" height="243.34775"><svg version="1.1" xmlns="http://www.w3.org/2000/svg" xmlns:xlink="http://www.w3.org/1999/xlink" width="243.34775" height="243.34775" viewBox="0,0,243.34775,243.34775"><g transform="translate(-118.32613,-58.32611)"><g data-paper-data="{&quot;isPaintingLayer&quot;:true}" fill-rule="nonzero" stroke-linecap="butt" stroke-linejoin="miter" stroke-miterlimit="10" stroke-dasharray="" stroke-dashoffset="0" style="mix-blend-mode: normal"><path d="M118.32614,301.67386v-243.34775h243.34775v243.34775z" fill="#80c27a" stroke="none" stroke-width="0"></path><path d="M172.09092,180.00001c0,-37.50515 30.40393,-67.9091 67.9091,-67.9091c37.50516,0 67.9091,30.40394 67.9091,67.9091c0,37.50517 -30.40394,67.9091 -67.9091,67.9091c-37.50515,0 -67.9091,-30.40394 -67.9091,-67.9091z" fill="#f9f9f8" stroke="none" stroke-width="0"></path><path d="M206.71116,235.07369c0,0 -29.83227,8.08278 -30.5461,7.51446c-0.65595,-0.52224 7.51446,-30.5461 7.51446,-30.5461z" fill="#f9f9f8" stroke="#f8f8f8" stroke-width="5"></path><path d="M228.95841,184.09093c0,-6.2132 5.0368,-11.25 11.25,-11.25c6.2132,0 11.25,5.0368 11.25,11.25c0,6.2132 -5.0368,11.25 -11.25,11.25c-6.2132,0 -11.25,-5.0368 -11.25,-11.25z" fill="#80c27a" stroke="none" stroke-width="0"></path><path d="M196.54171,184.09093c0,-6.2132 5.0368,-11.25 11.25,-11.25c6.2132,0 11.25,5.0368 11.25,11.25c0,6.2132 -5.0368,11.25 -11.25,11.25c-6.2132,0 -11.25,-5.0368 -11.25,-11.25z" fill="#80c27a" stroke="none" stroke-width="0"></path><path d="M260.95832,184.09093c0,-6.2132 5.0368,-11.25 11.25,-11.25c6.2132,0 11.25,5.0368 11.25,11.25c0,6.2132 -5.0368,11.25 -11.25,11.25c-6.2132,0 -11.25,-5.0368 -11.25,-11.25z" fill="#80c27a" stroke="none" stroke-width="0"></path></g></g></svg></svg></g></g><defs><clipPath id="SvgjsClipPath1102"><rect width="1000" height="1000" x="0" y="0" rx="500" ry="500"></rect></clipPath></defs></svg></g><g id="dark-icon"><svg xmlns="http://www.w3.org/2000/svg" version="1.1" xmlns:xlink="http://www.w3.org/1999/xlink" width="1000" height="1000"><g clip-path="url(#SvgjsClipPath1103)"><rect width="1000" height="1000" fill="#80c27a"></rect><g transform="matrix(3.28747646115487,0,0,3.28747646115487,100,100)"><svg xmlns="http://www.w3.org/2000/svg" version="1.1" xmlns:xlink="http://www.w3.org/1999/xlink" width="243.34775" height="243.34775"><svg version="1.1" xmlns="http://www.w3.org/2000/svg" xmlns:xlink="http://www.w3.org/1999/xlink" width="243.34775" height="243.34775" viewBox="0,0,243.34775,243.34775"><g transform="translate(-118.32615,-58.32611)"><g data-paper-data="{&quot;isPaintingLayer&quot;:true}" fill-rule="nonzero" stroke-linecap="butt" stroke-linejoin="miter" stroke-miterlimit="10" stroke-dasharray="" stroke-dashoffset="0" style="mix-blend-mode: normal"><path d="M118.32616,301.67386v-243.34775h243.34775v243.34775z" fill="#80c27a" stroke="none" stroke-width="0"></path><path d="M172.09094,180.00003c0,-37.50515 30.40393,-67.9091 67.9091,-67.9091c37.50516,0 67.9091,30.40394 67.9091,67.9091c0,37.50517 -30.40394,67.9091 -67.9091,67.9091c-37.50515,0 -67.9091,-30.40394 -67.9091,-67.9091z" fill="#000000" stroke="none" stroke-width="0"></path><path d="M206.71118,235.07371c0,0 -29.83227,8.08278 -30.5461,7.51446c-0.65595,-0.52224 7.51446,-30.5461 7.51446,-30.5461z" fill="#000000" stroke="#000000" stroke-width="5"></path><path d="M228.95842,184.09094c0,-6.2132 5.0368,-11.25 11.25,-11.25c6.2132,0 11.25,5.0368 11.25,11.25c0,6.2132 -5.0368,11.25 -11.25,11.25c-6.2132,0 -11.25,-5.0368 -11.25,-11.25z" fill="#80c27a" stroke="none" stroke-width="0"></path><path d="M196.54173,184.09094c0,-6.2132 5.0368,-11.25 11.25,-11.25c6.2132,0 11.25,5.0368 11.25,11.25c0,6.2132 -5.0368,11.25 -11.25,11.25c-6.2132,0 -11.25,-5.0368 -11.25,-11.25z" fill="#80c27a" stroke="none" stroke-width="0"></path><path d="M260.95833,184.09094c0,-6.2132 5.0368,-11.25 11.25,-11.25c6.2132,0 11.25,5.0368 11.25,11.25c0,6.2132 -5.0368,11.25 -11.25,11.25c-6.2132,0 -11.25,-5.0368 -11.25,-11.25z" fill="#80c27a" stroke="none" stroke-width="0"></path></g></g></svg></svg></g></g><defs><clipPath id="SvgjsClipPath1103"><rect width="1000" height="1000" x="0" y="0" rx="500" ry="500"></rect></clipPath></defs></svg></g></svg>